<svg width="48" height="48" viewBox="0 0 48 48" fill="none" xmlns="http://www.w3.org/2000/svg">
<path d="M14.922 33.012L32.945 14.988M9.47998 5.5C8.41911 5.5 7.4017 5.92143 6.65155 6.67157C5.90141 7.42172 5.47998 8.43913 5.47998 9.5V38.5C5.47998 39.5609 5.90141 40.5783 6.65155 41.3284C7.4017 42.0786 8.41911 42.5 9.47998 42.5H38.52C39.5808 42.5 40.5983 42.0786 41.3484 41.3284C42.0986 40.5783 42.52 39.5609 42.52 38.5V9.5C42.52 8.43913 42.0986 7.42172 41.3484 6.67157C40.5983 5.92143 39.5808 5.5 38.52 5.5H9.47998Z" stroke="black" stroke-linecap="round" stroke-linejoin="round"/>
<path d="M25.7031 19.817C25.021 19.5371 24.2805 19.4295 23.547 19.5035C22.8134 19.5776 22.1094 19.8311 21.4969 20.2416C20.8845 20.6521 20.3826 21.207 20.0354 21.8574C19.6882 22.5078 19.5064 23.2337 19.5061 23.971C19.5091 24.555 19.6261 25.131 19.8501 25.671M22.6551 28.255C23.0899 28.3927 23.5431 28.4635 23.9991 28.465C24.7043 28.4648 25.3996 28.2986 26.0287 27.9798C26.6578 27.661 27.203 27.1986 27.6201 26.6299C28.0373 26.0613 28.3146 25.4024 28.4298 24.7066C28.545 24.0109 28.4947 23.2977 28.2831 22.625" stroke="black" stroke-linecap="round" stroke-linejoin="round"/>
<path d="M28.49 17.03C27.0207 16.6429 25.5084 16.4433 23.989 16.436C21.151 16.4435 18.3558 17.1282 15.8357 18.4334C13.3157 19.7385 11.1436 21.6264 9.5 23.94C11.1778 26.3025 13.407 28.2197 15.994 29.525M19.944 30.965C21.2698 31.2776 22.6268 31.4386 23.989 31.445C26.83 31.4369 29.6282 30.7519 32.1518 29.4467C34.6753 28.1416 36.8515 26.2539 38.5 23.94C36.8908 21.6834 34.7784 19.8322 32.33 18.533" stroke="black" stroke-linecap="round" stroke-linejoin="round"/>
</svg>
