<svg width="70" height="61" viewBox="0 0 70 61" fill="none" xmlns="http://www.w3.org/2000/svg">
<g clip-path="url(#clip0_36_226)">
<path d="M35 0C25.7174 0 16.815 3.21338 10.2513 8.93324C3.68749 14.6531 0 22.4109 0 30.5C0 38.5891 3.68749 46.3469 10.2513 52.0668C16.815 57.7866 25.7174 61 35 61C44.2826 61 53.185 57.7866 59.7487 52.0668C66.3125 46.3469 70 38.5891 70 30.5C70 22.4109 66.3125 14.6531 59.7487 8.93324C53.185 3.21338 44.2826 0 35 0ZM50.3125 28.5938C50.8927 28.5938 51.4491 28.7946 51.8593 29.1521C52.2695 29.5096 52.5 29.9944 52.5 30.5C52.5 31.0056 52.2695 31.4904 51.8593 31.8479C51.4491 32.2054 50.8927 32.4062 50.3125 32.4062H24.9681L34.3613 40.5879C34.5646 40.7651 34.726 40.9755 34.836 41.2071C34.9461 41.4387 35.0028 41.6869 35.0028 41.9375C35.0028 42.1881 34.9461 42.4363 34.836 42.6679C34.726 42.8995 34.5646 43.1099 34.3613 43.2871C34.1579 43.4644 33.9164 43.6049 33.6507 43.7009C33.3849 43.7968 33.1001 43.8462 32.8125 43.8462C32.5249 43.8462 32.2401 43.7968 31.9743 43.7009C31.7086 43.6049 31.4671 43.4644 31.2638 43.2871L18.1388 31.8496C17.935 31.6726 17.7734 31.4622 17.6631 31.2306C17.5529 30.999 17.4961 30.7507 17.4961 30.5C17.4961 30.2493 17.5529 30.001 17.6631 29.7694C17.7734 29.5378 17.935 29.3274 18.1388 29.1504L31.2638 17.7129C31.6745 17.3549 32.2316 17.1538 32.8125 17.1538C33.3934 17.1538 33.9505 17.3549 34.3613 17.7129C34.772 18.0708 35.0028 18.5563 35.0028 19.0625C35.0028 19.5687 34.772 20.0542 34.3613 20.4121L24.9681 28.5938H50.3125Z" fill="black"/>
</g>
<defs>
<clipPath id="clip0_36_226">
<rect width="70" height="61" fill="white"/>
</clipPath>
</defs>
</svg>
