<svg width="70" height="61" viewBox="0 0 70 61" fill="none" xmlns="http://www.w3.org/2000/svg">
<g clip-path="url(#clip0_44_109)">
<path d="M35 61C44.2826 61 53.185 57.7866 59.7487 52.0668C66.3125 46.3469 70 38.5891 70 30.5C70 22.4109 66.3125 14.6531 59.7487 8.93324C53.185 3.21338 44.2826 0 35 0C25.7174 0 16.815 3.21338 10.2513 8.93324C3.68748 14.6531 0 22.4109 0 30.5C0 38.5891 3.68748 46.3469 10.2513 52.0668C16.815 57.7866 25.7174 61 35 61ZM19.6875 32.4062C19.1073 32.4062 18.5509 32.2054 18.1407 31.8479C17.7305 31.4904 17.5 31.0056 17.5 30.5C17.5 29.9944 17.7305 29.5096 18.1407 29.1521C18.5509 28.7946 19.1073 28.5938 19.6875 28.5938H45.0319L35.6387 20.4121C35.4354 20.2349 35.274 20.0245 35.164 19.7929C35.0539 19.5613 34.9972 19.3131 34.9972 19.0625C34.9972 18.8119 35.0539 18.5637 35.164 18.3321C35.274 18.1005 35.4354 17.8901 35.6387 17.7129C35.8421 17.5356 36.0836 17.3951 36.3493 17.2991C36.6151 17.2032 36.8999 17.1538 37.1875 17.1538C37.4751 17.1538 37.7599 17.2032 38.0257 17.2991C38.2914 17.3951 38.5329 17.5356 38.7362 17.7129L51.8612 29.1504C52.065 29.3274 52.2266 29.5378 52.3369 29.7694C52.4471 30.001 52.5039 30.2493 52.5039 30.5C52.5039 30.7507 52.4471 30.999 52.3369 31.2306C52.2266 31.4622 52.065 31.6726 51.8612 31.8496L38.7362 43.2871C38.3255 43.6451 37.7684 43.8462 37.1875 43.8462C36.6066 43.8462 36.0495 43.6451 35.6387 43.2871C35.228 42.9292 34.9972 42.4437 34.9972 41.9375C34.9972 41.4313 35.228 40.9458 35.6387 40.5879L45.0319 32.4062H19.6875Z" fill="black"/>
</g>
<defs>
<clipPath id="clip0_44_109">
<rect width="70" height="61" fill="white" transform="matrix(-1 0 0 -1 70 61)"/>
</clipPath>
</defs>
</svg>
