<svg width="50" height="50" viewBox="0 0 50 50" fill="none" xmlns="http://www.w3.org/2000/svg">
<path d="M14.5979 25C14.5979 24.5856 14.7625 24.1882 15.0555 23.8952C15.3486 23.6021 15.746 23.4375 16.1604 23.4375H23.4375V16.1604C23.4375 15.746 23.6021 15.3486 23.8951 15.0556C24.1882 14.7626 24.5856 14.5979 25 14.5979C25.4144 14.5979 25.8118 14.7626 26.1048 15.0556C26.3979 15.3486 26.5625 15.746 26.5625 16.1604V23.4375H33.8396C34.254 23.4375 34.6514 23.6021 34.9444 23.8952C35.2374 24.1882 35.4021 24.5856 35.4021 25C35.4021 25.4144 35.2374 25.8118 34.9444 26.1049C34.6514 26.3979 34.254 26.5625 33.8396 26.5625H26.5625V33.8396C26.5625 34.254 26.3979 34.6514 26.1048 34.9445C25.8118 35.2375 25.4144 35.4021 25 35.4021C24.5856 35.4021 24.1882 35.2375 23.8951 34.9445C23.6021 34.6514 23.4375 34.254 23.4375 33.8396V26.5625H16.1604C15.746 26.5625 15.3486 26.3979 15.0555 26.1049C14.7625 25.8118 14.5979 25.4144 14.5979 25Z" fill="black"/>
<path fill-rule="evenodd" clip-rule="evenodd" d="M15.2437 7.85209C21.728 7.13325 28.2719 7.13325 34.7562 7.85209C38.5625 8.27709 41.6354 11.275 42.0812 15.1021C42.852 21.6792 42.852 28.3229 42.0812 34.9C41.6333 38.7271 38.5604 41.7229 34.7562 42.15C28.2719 42.8689 21.728 42.8689 15.2437 42.15C11.4375 41.7229 8.36454 38.7271 7.91871 34.9C7.14949 28.3231 7.14949 21.679 7.91871 15.1021C8.36454 11.275 11.4395 8.27709 15.2437 7.85209ZM34.4104 10.9563C28.1559 10.263 21.844 10.263 15.5895 10.9563C14.4317 11.0847 13.351 11.5997 12.522 12.4182C11.693 13.2366 11.1641 14.3106 11.0208 15.4667C10.2798 21.802 10.2798 28.2021 11.0208 34.5375C11.1645 35.6932 11.6936 36.7667 12.5226 37.5847C13.3516 38.4027 14.432 38.9175 15.5895 39.0458C21.7916 39.7375 28.2083 39.7375 34.4104 39.0458C35.5675 38.917 36.6475 38.4021 37.4761 37.5841C38.3046 36.7662 38.8334 35.6929 38.977 34.5375C39.718 28.2021 39.718 21.802 38.977 15.4667C38.8329 14.3117 38.304 13.2388 37.4755 12.4213C36.647 11.6037 35.5672 11.0891 34.4104 10.9604" fill="black"/>
</svg>
