<svg width="70" height="70" viewBox="0 0 70 70" fill="none" xmlns="http://www.w3.org/2000/svg">
<path d="M41.0638 4.375C41.5269 4.37501 41.9781 4.52202 42.3523 4.79484C42.7266 5.06766 43.0046 5.45221 43.1463 5.89313L45.5525 13.37C46.5632 13.8644 47.53 14.42 48.4532 15.0456L56.1357 13.3919C56.5886 13.2952 57.0606 13.3447 57.4836 13.5334C57.9066 13.7221 58.2588 14.0402 58.4894 14.4419L64.5532 24.9375C64.7847 25.3389 64.8828 25.8035 64.8333 26.2643C64.7837 26.7251 64.5891 27.1582 64.2775 27.5012L59.0057 33.32C59.0825 34.4358 59.0825 35.5555 59.0057 36.6712L64.2775 42.4987C64.5891 42.8418 64.7837 43.2749 64.8333 43.7357C64.8828 44.1965 64.7847 44.6611 64.5532 45.0625L58.4894 55.5625C58.2581 55.9634 57.9057 56.2805 57.4827 56.4684C57.0598 56.6563 56.5882 56.7052 56.1357 56.6081L48.4532 54.9544C47.5344 55.5756 46.5632 56.1356 45.5569 56.63L43.1463 64.1069C43.0046 64.5478 42.7266 64.9323 42.3523 65.2052C41.9781 65.478 41.5269 65.625 41.0638 65.625H28.9363C28.4732 65.625 28.022 65.478 27.6478 65.2052C27.2735 64.9323 26.9955 64.5478 26.8538 64.1069L24.4519 56.6344C23.444 56.1414 22.4719 55.5786 21.5425 54.95L13.8644 56.6081C13.4115 56.7048 12.9395 56.6553 12.5165 56.4666C12.0935 56.2779 11.7413 55.9598 11.5107 55.5581L5.44692 45.0625C5.21537 44.6611 5.1173 44.1965 5.16683 43.7357C5.21637 43.2749 5.41096 42.8418 5.72255 42.4987L10.9944 36.6712C10.918 35.5584 10.918 34.4416 10.9944 33.3288L5.72255 27.5012C5.41096 27.1582 5.21637 26.7251 5.16683 26.2643C5.1173 25.8035 5.21537 25.3389 5.44692 24.9375L11.5107 14.4375C11.742 14.0366 12.0944 13.7195 12.5173 13.5316C12.9403 13.3437 13.4119 13.2948 13.8644 13.3919L21.5425 15.05C22.47 14.4244 23.4413 13.86 24.4519 13.3656L26.8582 5.89313C26.9994 5.45363 27.2761 5.07009 27.6486 4.79741C28.0211 4.52472 28.4703 4.37686 28.9319 4.375H41.0594H41.0638ZM39.4625 8.75H30.5375L28.0525 16.4806L26.3769 17.2987C25.5532 17.7018 24.758 18.1608 23.9969 18.6725L22.4482 19.7225L14.5032 18.0075L10.0407 25.7425L15.4875 31.7712L15.3563 33.6262C15.2934 34.541 15.2934 35.459 15.3563 36.3738L15.4875 38.2287L10.0319 44.2575L14.4988 51.9925L22.4438 50.2819L23.9925 51.3275C24.7536 51.8392 25.5488 52.2982 26.3725 52.7012L28.0482 53.5194L30.5375 61.25H39.4713L41.965 53.515L43.6363 52.7012C44.4592 52.2991 45.253 51.8401 46.0119 51.3275L47.5563 50.2819L55.5057 51.9925L59.9682 44.2575L54.5169 38.2287L54.6482 36.3738C54.7113 35.4575 54.7113 34.5381 54.6482 33.6219L54.5169 31.7669L59.9725 25.7425L55.5057 18.0075L47.5563 19.7137L46.0119 18.6725C45.253 18.1599 44.4592 17.7009 43.6363 17.2987L41.965 16.485L39.4669 8.75H39.4625ZM35 21.875C38.481 21.875 41.8194 23.2578 44.2808 25.7192C46.7422 28.1806 48.125 31.519 48.125 35C48.125 38.481 46.7422 41.8194 44.2808 44.2808C41.8194 46.7422 38.481 48.125 35 48.125C31.5191 48.125 28.1807 46.7422 25.7193 44.2808C23.2579 41.8194 21.875 38.481 21.875 35C21.875 31.519 23.2579 28.1806 25.7193 25.7192C28.1807 23.2578 31.5191 21.875 35 21.875ZM35 26.25C32.6794 26.25 30.4538 27.1719 28.8129 28.8128C27.1719 30.4538 26.25 32.6794 26.25 35C26.25 37.3206 27.1719 39.5462 28.8129 41.1872C30.4538 42.8281 32.6794 43.75 35 43.75C37.3207 43.75 39.5463 42.8281 41.1872 41.1872C42.8282 39.5462 43.75 37.3206 43.75 35C43.75 32.6794 42.8282 30.4538 41.1872 28.8128C39.5463 27.1719 37.3207 26.25 35 26.25Z" fill="black"/>
</svg>
