<svg width="150" height="150" viewBox="0 0 150 150" fill="none" xmlns="http://www.w3.org/2000/svg">
<path d="M87.9938 9.375C88.9862 9.37503 89.953 9.69004 90.7549 10.2746C91.5569 10.8593 92.1526 11.6833 92.4563 12.6281L97.6125 28.65C99.7781 29.7094 101.85 30.9 103.828 32.2406L120.291 28.6969C121.261 28.4896 122.273 28.5958 123.179 29.0002C124.085 29.4045 124.84 30.0862 125.334 30.9469L138.328 53.4375C138.824 54.2977 139.034 55.2933 138.928 56.2806C138.822 57.268 138.405 58.1962 137.738 58.9312L126.441 71.4C126.605 73.7909 126.605 76.1903 126.441 78.5813L137.738 91.0687C138.405 91.8038 138.822 92.732 138.928 93.7194C139.034 94.7067 138.824 95.7023 138.328 96.5625L125.334 119.062C124.839 119.921 124.084 120.601 123.177 121.004C122.271 121.406 121.26 121.511 120.291 121.303L103.828 117.759C101.859 119.091 99.7781 120.291 97.6219 121.35L92.4563 137.372C92.1526 138.317 91.5569 139.141 90.7549 139.725C89.953 140.31 88.9862 140.625 87.9938 140.625H62.0063C61.0138 140.625 60.047 140.31 59.2451 139.725C58.4431 139.141 57.8474 138.317 57.5438 137.372L52.3969 121.359C50.2372 120.303 48.1539 119.097 46.1625 117.75L29.7094 121.303C28.7387 121.51 27.7274 121.404 26.821 121C25.9145 120.595 25.1599 119.914 24.6656 119.053L11.6719 96.5625C11.1757 95.7023 10.9655 94.7067 11.0717 93.7194C11.1778 92.732 11.5948 91.8038 12.2625 91.0687L23.5594 78.5813C23.3957 76.1966 23.3957 73.8034 23.5594 71.4188L12.2625 58.9312C11.5948 58.1962 11.1778 57.268 11.0717 56.2806C10.9655 55.2933 11.1757 54.2977 11.6719 53.4375L24.6656 30.9375C25.1612 30.0785 25.9165 29.3988 26.8228 28.9962C27.7291 28.5936 28.7397 28.4888 29.7094 28.6969L46.1625 32.25C48.15 30.9094 50.2313 29.7 52.3969 28.6406L57.5531 12.6281C57.8558 11.6864 58.4487 10.8645 59.2469 10.2802C60.0451 9.69583 61.0077 9.37899 61.9969 9.375H87.9844H87.9938ZM84.5625 18.75H65.4375L60.1125 35.3156L56.5219 37.0688C54.7567 37.9325 53.0527 38.916 51.4219 40.0125L48.1031 42.2625L31.0781 38.5875L21.5156 55.1625L33.1875 68.0812L32.9063 72.0562C32.7715 74.0164 32.7715 75.9836 32.9063 77.9437L33.1875 81.9187L21.4969 94.8375L31.0688 111.412L48.0938 107.747L51.4125 109.988C53.0434 111.084 54.7473 112.068 56.5125 112.931L60.1031 114.684L65.4375 131.25H84.5813L89.925 114.675L93.5063 112.931C95.2695 112.07 96.9706 111.086 98.5969 109.988L101.906 107.747L118.941 111.412L128.503 94.8375L116.822 81.9187L117.103 77.9437C117.238 75.9805 117.238 74.0102 117.103 72.0469L116.822 68.0719L128.513 55.1625L118.941 38.5875L101.906 42.2438L98.5969 40.0125C96.9706 38.914 95.2695 37.9304 93.5063 37.0688L89.925 35.325L84.5719 18.75H84.5625ZM75 46.875C82.4592 46.875 89.6129 49.8382 94.8874 55.1126C100.162 60.3871 103.125 67.5408 103.125 75C103.125 82.4592 100.162 89.6129 94.8874 94.8874C89.6129 100.162 82.4592 103.125 75 103.125C67.5408 103.125 60.3871 100.162 55.1126 94.8874C49.8382 89.6129 46.875 82.4592 46.875 75C46.875 67.5408 49.8382 60.3871 55.1126 55.1126C60.3871 49.8382 67.5408 46.875 75 46.875ZM75 56.25C70.0272 56.25 65.2581 58.2254 61.7418 61.7417C58.2254 65.2581 56.25 70.0272 56.25 75C56.25 79.9728 58.2254 84.7419 61.7418 88.2582C65.2581 91.7746 70.0272 93.75 75 93.75C79.9728 93.75 84.742 91.7746 88.2583 88.2582C91.7746 84.7419 93.75 79.9728 93.75 75C93.75 70.0272 91.7746 65.2581 88.2583 61.7417C84.742 58.2254 79.9728 56.25 75 56.25Z" fill="black"/>
</svg>
