<svg width="150" height="150" viewBox="0 0 150 150" fill="none" xmlns="http://www.w3.org/2000/svg">
<path d="M121.875 11.7188H42.1875C36.5931 11.7188 31.2278 13.9411 27.272 17.897C23.3161 21.8528 21.0938 27.2181 21.0938 32.8125V131.25C21.0938 133.115 21.8345 134.903 23.1532 136.222C24.4718 137.54 26.2602 138.281 28.125 138.281H112.5C114.365 138.281 116.153 137.54 117.472 136.222C118.79 134.903 119.531 133.115 119.531 131.25C119.531 129.385 118.79 127.597 117.472 126.278C116.153 124.96 114.365 124.219 112.5 124.219H35.1562V121.875C35.1562 120.01 35.897 118.222 37.2157 116.903C38.5343 115.585 40.3227 114.844 42.1875 114.844H121.875C123.74 114.844 125.528 114.103 126.847 112.784C128.165 111.466 128.906 109.677 128.906 107.812V18.75C128.906 16.8852 128.165 15.0968 126.847 13.7782C125.528 12.4595 123.74 11.7188 121.875 11.7188ZM114.844 100.781H42.1875C39.7918 100.777 37.4133 101.185 35.1562 101.988V32.8125C35.1562 30.9477 35.897 29.1593 37.2157 27.8407C38.5343 26.522 40.3227 25.7812 42.1875 25.7812H114.844V100.781Z" fill="black"/>
</svg>
