<svg width="1486" height="910" viewBox="0 0 1486 910" fill="none" xmlns="http://www.w3.org/2000/svg">
<path d="M242.93 174C242.93 205.48 253.167 231 174.49 231C-100.79 231 32.0339 205.48 32.0339 174C32.0339 142.52 -98.2552 115.5 174.49 115.5C253.167 115.5 242.93 142.52 242.93 174Z" fill="white"/>
<rect x="183.108" width="1302.89" height="910" rx="20" fill="white"/>
<path d="M142.875 496.469H105.688C103.077 496.469 100.573 497.506 98.7269 499.352C96.8809 501.198 95.8438 503.702 95.8438 506.312V552.25C95.8438 553.12 96.1895 553.955 96.8048 554.57C97.4202 555.186 98.2548 555.531 99.125 555.531H138.5C139.37 555.531 140.205 555.186 140.82 554.57C141.436 553.955 141.781 553.12 141.781 552.25C141.781 551.38 141.436 550.545 140.82 549.93C140.205 549.314 139.37 548.969 138.5 548.969H102.406V547.875C102.406 547.005 102.752 546.17 103.367 545.555C103.983 544.939 104.817 544.594 105.688 544.594H142.875C143.745 544.594 144.58 544.248 145.195 543.633C145.811 543.017 146.156 542.183 146.156 541.312V499.75C146.156 498.88 145.811 498.045 145.195 497.43C144.58 496.814 143.745 496.469 142.875 496.469ZM139.594 538.031H105.688C104.57 538.029 103.46 538.22 102.406 538.595V506.312C102.406 505.442 102.752 504.608 103.367 503.992C103.983 503.377 104.817 503.031 105.688 503.031H139.594V538.031Z" fill="black"/>
</svg>
