<svg width="1486" height="910" viewBox="0 0 1486 910" fill="none" xmlns="http://www.w3.org/2000/svg">
<path d="M242.93 291C242.93 322.48 253.167 348 174.49 348C-100.79 348 32.0339 322.48 32.0339 291C32.0339 259.52 -98.2552 232.5 174.49 232.5C253.167 232.5 242.93 259.52 242.93 291Z" fill="white"/>
<rect x="183.108" width="1302.89" height="910" rx="20" fill="white"/>
<path d="M141.875 497.469H104.688C102.077 497.469 99.573 498.506 97.7269 500.352C95.8809 502.198 94.8438 504.702 94.8438 507.312V553.25C94.8438 554.12 95.1895 554.955 95.8048 555.57C96.4202 556.186 97.2548 556.531 98.125 556.531H137.5C138.37 556.531 139.205 556.186 139.82 555.57C140.436 554.955 140.781 554.12 140.781 553.25C140.781 552.38 140.436 551.545 139.82 550.93C139.205 550.314 138.37 549.969 137.5 549.969H101.406V548.875C101.406 548.005 101.752 547.17 102.367 546.555C102.983 545.939 103.817 545.594 104.688 545.594H141.875C142.745 545.594 143.58 545.248 144.195 544.633C144.811 544.017 145.156 543.183 145.156 542.312V500.75C145.156 499.88 144.811 499.045 144.195 498.43C143.58 497.814 142.745 497.469 141.875 497.469ZM138.594 539.031H104.688C103.57 539.029 102.46 539.22 101.406 539.595V507.312C101.406 506.442 101.752 505.608 102.367 504.992C102.983 504.377 103.817 504.031 104.688 504.031H138.594V539.031Z" fill="black"/>
</svg>
