<svg width="1486" height="910" viewBox="0 0 1486 910" fill="none" xmlns="http://www.w3.org/2000/svg">
<path d="M242.93 174C242.93 205.48 253.167 231 174.49 231C-100.79 231 32.0339 205.48 32.0339 174C32.0339 142.52 -98.2552 115.5 174.49 115.5C253.167 115.5 242.93 142.52 242.93 174Z" fill="white"/>
<rect x="183.108" width="1302.89" height="910" rx="20" fill="white"/>
<g clip-path="url(#clip0_47_1029)">
<path d="M249 87C239.717 87 230.815 90.2134 224.251 95.9332C217.687 101.653 214 109.411 214 117.5C214 125.589 217.687 133.347 224.251 139.067C230.815 144.787 239.717 148 249 148C258.283 148 267.185 144.787 273.749 139.067C280.313 133.347 284 125.589 284 117.5C284 109.411 280.313 101.653 273.749 95.9332C267.185 90.2134 258.283 87 249 87ZM264.312 115.594C264.893 115.594 265.449 115.795 265.859 116.152C266.27 116.51 266.5 116.994 266.5 117.5C266.5 118.006 266.27 118.49 265.859 118.848C265.449 119.205 264.893 119.406 264.312 119.406H238.968L248.361 127.588C248.565 127.765 248.726 127.976 248.836 128.207C248.946 128.439 249.003 128.687 249.003 128.938C249.003 129.188 248.946 129.436 248.836 129.668C248.726 129.899 248.565 130.11 248.361 130.287C248.158 130.464 247.916 130.605 247.651 130.701C247.385 130.797 247.1 130.846 246.812 130.846C246.525 130.846 246.24 130.797 245.974 130.701C245.709 130.605 245.467 130.464 245.264 130.287L232.139 118.85C231.935 118.673 231.773 118.462 231.663 118.231C231.553 117.999 231.496 117.751 231.496 117.5C231.496 117.249 231.553 117.001 231.663 116.769C231.773 116.538 231.935 116.327 232.139 116.15L245.264 104.713C245.675 104.355 246.232 104.154 246.812 104.154C247.393 104.154 247.95 104.355 248.361 104.713C248.772 105.071 249.003 105.556 249.003 106.062C249.003 106.569 248.772 107.054 248.361 107.412L238.968 115.594H264.312Z" fill="black"/>
</g>
<defs>
<clipPath id="clip0_47_1029">
<rect width="70" height="61" fill="white" transform="translate(214 87)"/>
</clipPath>
</defs>
</svg>
