<svg width="64" height="64" viewBox="0 0 64 64" fill="none" xmlns="http://www.w3.org/2000/svg">
<path d="M31.9999 30.36C29.8008 30.36 27.9172 29.576 26.3492 28.008C24.7812 26.44 23.9981 24.5574 23.9999 22.36C24.0017 20.1627 24.7848 18.2782 26.3492 16.7067C27.9137 15.1351 29.7973 14.3538 31.9999 14.3627C34.2026 14.3716 36.0861 15.1538 37.6506 16.7094C39.215 18.2649 39.9981 20.1494 39.9999 22.3627C40.0017 24.576 39.2186 26.4587 37.6506 28.0107C36.0826 29.5627 34.199 30.344 31.9999 30.36ZM13.3333 49.6427V45.2533C13.3333 44.1529 13.6533 43.1236 14.2933 42.1653C14.935 41.2054 15.7973 40.4605 16.8799 39.9307C19.3973 38.7236 21.9164 37.8187 24.4373 37.216C26.9564 36.6116 29.4773 36.3094 31.9999 36.3094C34.5226 36.3094 37.0444 36.6116 39.5653 37.216C42.0861 37.8205 44.6035 38.7253 47.1173 39.9307C48.2017 40.4605 49.0639 41.2054 49.7039 42.1653C50.3457 43.1236 50.6666 44.1529 50.6666 45.2533V49.6427H13.3333ZM15.9999 46.976H47.9999V45.2533C47.9999 44.6631 47.8088 44.1076 47.4266 43.5867C47.0461 43.0676 46.519 42.6285 45.8452 42.2693C43.6515 41.2062 41.3884 40.392 39.0559 39.8267C36.7235 39.2614 34.3715 38.9778 31.9999 38.976C29.6284 38.9742 27.2764 39.2569 24.9439 39.824C22.6115 40.3911 20.3484 41.2054 18.1546 42.2667C17.479 42.6258 16.9519 43.0649 16.5733 43.584C16.191 44.1049 15.9999 44.6613 15.9999 45.2533V46.976ZM31.9999 27.696C33.4666 27.696 34.7226 27.1734 35.7679 26.128C36.8133 25.0827 37.335 23.8258 37.3333 22.3574C37.3315 20.8889 36.8097 19.6338 35.7679 18.592C34.7261 17.5502 33.4701 17.0276 31.9999 17.024C30.5297 17.0205 29.2746 17.5431 28.2346 18.592C27.1946 19.6409 26.6719 20.896 26.6666 22.3574C26.6613 23.8187 27.1839 25.0747 28.2346 26.1253C29.2853 27.176 30.5404 27.6978 31.9999 27.6907" fill="black"/>
</svg>
