<svg width="35" height="33" viewBox="0 0 35 33" fill="none" xmlns="http://www.w3.org/2000/svg">
<path d="M29.7915 30H28.2306V28.5H26.6698V27H25.109V25.5H23.5481V24H21.9873V22.5H20.4265V21H17.3048V22.5H9.50065V21H6.37899V19.5H4.81816V16.5H3.25732V9H4.81816V6H6.37899V4.5H9.50065V3H17.3048V4.5H20.4265V6H21.9873V9H23.5481V16.5H21.9873V19.5H23.5481V21H25.109V22.5H26.6698V24H28.2306V25.5H29.7915V27H31.3523V28.5H29.7915M17.3048 19.5V18H18.8656V16.5H20.4265V9H18.8656V7.5H17.3048V6H9.50065V7.5H7.93982V9H6.37899V16.5H7.93982V18H9.50065V19.5H17.3048Z" fill="black"/>
</svg>
