<svg width="70" height="70" viewBox="0 0 70 70" fill="none" xmlns="http://www.w3.org/2000/svg">
<path d="M56.875 5.46875H19.6875C17.0768 5.46875 14.573 6.50586 12.7269 8.35192C10.8809 10.198 9.84375 12.7018 9.84375 15.3125V61.25C9.84375 62.1202 10.1895 62.9548 10.8048 63.5702C11.4202 64.1855 12.2548 64.5312 13.125 64.5312H52.5C53.3702 64.5312 54.2048 64.1855 54.8202 63.5702C55.4355 62.9548 55.7812 62.1202 55.7812 61.25C55.7812 60.3798 55.4355 59.5452 54.8202 58.9298C54.2048 58.3145 53.3702 57.9688 52.5 57.9688H16.4062V56.875C16.4062 56.0048 16.752 55.1702 17.3673 54.5548C17.9827 53.9395 18.8173 53.5938 19.6875 53.5938H56.875C57.7452 53.5938 58.5798 53.248 59.1952 52.6327C59.8105 52.0173 60.1562 51.1827 60.1562 50.3125V8.75C60.1562 7.87976 59.8105 7.04516 59.1952 6.42981C58.5798 5.81445 57.7452 5.46875 56.875 5.46875ZM53.5938 47.0312H19.6875C18.5695 47.0292 17.4595 47.2197 16.4062 47.5945V15.3125C16.4062 14.4423 16.752 13.6077 17.3673 12.9923C17.9827 12.377 18.8173 12.0312 19.6875 12.0312H53.5938V47.0312Z" fill="black"/>
</svg>
