<svg width="42" height="42" viewBox="0 0 42 42" fill="none" xmlns="http://www.w3.org/2000/svg">
<path d="M11.7599 15.9501L5.69943 20.9999L11.7599 26.0498C11.9609 26.2145 12.1273 26.4174 12.2495 26.6467C12.3717 26.8761 12.4473 27.1273 12.4719 27.386C12.4965 27.6447 12.4697 27.9057 12.3929 28.154C12.3162 28.4023 12.191 28.6329 12.0247 28.8326C11.8584 29.0322 11.6542 29.197 11.4239 29.3173C11.1936 29.4377 10.9417 29.5113 10.6828 29.5338C10.4239 29.5564 10.1631 29.5275 9.9155 29.4487C9.66785 29.37 9.43823 29.243 9.2399 29.0751L1.3649 22.5126C1.14311 22.3278 0.964657 22.0966 0.842194 21.8351C0.71973 21.5737 0.65625 21.2886 0.65625 20.9999C0.65625 20.7113 0.71973 20.4261 0.842194 20.1647C0.964657 19.9033 1.14311 19.672 1.3649 19.4873L9.2399 12.9248C9.64165 12.5955 10.1572 12.4384 10.6743 12.4876C11.1914 12.5368 11.6681 12.7884 12.0005 13.1875C12.333 13.5866 12.4942 14.1009 12.4491 14.6183C12.4041 15.1358 12.1563 15.6145 11.7599 15.9501ZM40.6349 19.4873L32.7599 12.9248C32.5616 12.7569 32.332 12.6299 32.0843 12.5512C31.8367 12.4724 31.5759 12.4435 31.317 12.466C31.0581 12.4886 30.8062 12.5622 30.5759 12.6825C30.3456 12.8029 30.1414 12.9677 29.9751 13.1673C29.8088 13.367 29.6836 13.5976 29.6069 13.8459C29.5301 14.0942 29.5033 14.3552 29.5279 14.6139C29.5525 14.8726 29.6281 15.1238 29.7503 15.3532C29.8725 15.5825 30.0389 15.7854 30.2399 15.9501L36.3004 20.9999L30.2399 26.0498C30.0389 26.2145 29.8725 26.4174 29.7503 26.6467C29.6281 26.8761 29.5525 27.1273 29.5279 27.386C29.5033 27.6447 29.5301 27.9057 29.6069 28.154C29.6836 28.4023 29.8088 28.6329 29.9751 28.8326C30.1414 29.0322 30.3456 29.197 30.5759 29.3173C30.8062 29.4377 31.0581 29.5113 31.317 29.5338C31.5759 29.5564 31.8367 29.5275 32.0843 29.4487C32.332 29.37 32.5616 29.243 32.7599 29.0751L40.6349 22.5126C40.8567 22.3278 41.0351 22.0966 41.1576 21.8351C41.2801 21.5737 41.3436 21.2886 41.3436 20.9999C41.3436 20.7113 41.2801 20.4261 41.1576 20.1647C41.0351 19.9033 40.8567 19.672 40.6349 19.4873ZM26.9226 4.71181C26.6795 4.62343 26.4215 4.5838 26.1631 4.59517C25.9048 4.60654 25.6512 4.66869 25.4169 4.77808C25.1826 4.88747 24.9721 5.04195 24.7975 5.2327C24.6229 5.42345 24.4876 5.64673 24.3993 5.88978L13.8993 34.7648C13.7213 35.2554 13.7454 35.7966 13.9663 36.2694C14.1872 36.7423 14.5868 37.1081 15.0772 37.2864C15.2926 37.3659 15.5204 37.4065 15.7499 37.4062C16.1541 37.4063 16.5486 37.2819 16.8796 37.05C17.2107 36.8182 17.4624 36.49 17.6005 36.1101L28.1005 7.23509C28.1889 6.99207 28.2285 6.73401 28.2172 6.47567C28.2058 6.21732 28.1436 5.96375 28.0343 5.72943C27.9249 5.49511 27.7704 5.28464 27.5796 5.11003C27.3889 4.93543 27.1656 4.80011 26.9226 4.71181Z" fill="black"/>
</svg>
