<svg width="50" height="40" viewBox="0 0 50 40" fill="none" xmlns="http://www.w3.org/2000/svg">
<g clip-path="url(#clip0_36_248)">
<path d="M44.4444 5.55554H5.55556C4.08213 5.55554 2.66905 6.02379 1.62718 6.85729C0.585316 7.69078 0 8.82125 0 9.99999L0 30C0 31.1787 0.585316 32.3092 1.62718 33.1427C2.66905 33.9762 4.08213 34.4444 5.55556 34.4444H44.4444C45.9179 34.4444 47.3309 33.9762 48.3728 33.1427C49.4147 32.3092 50 31.1787 50 30V9.99999C50 8.82125 49.4147 7.69078 48.3728 6.85729C47.3309 6.02379 45.9179 5.55554 44.4444 5.55554Z" fill="#DA251D"/>
<path d="M27.4347 17.8189L25 11.8245L22.5653 17.8189H14.6875L21.0611 21.5222L18.6264 27.5167L25 23.8122L31.3736 27.5167L28.9389 21.5222L35.3125 17.8189H27.4347Z" fill="#FFFF00"/>
</g>
<defs>
<clipPath id="clip0_36_248">
<rect width="50" height="40" fill="white"/>
</clipPath>
</defs>
</svg>
