<svg width="22" height="22" viewBox="0 0 22 22" fill="none" xmlns="http://www.w3.org/2000/svg">
<path d="M18.922 8.63972L19.849 7.71272C20.5864 6.97529 21.0007 5.97511 21.0007 4.93222C21.0007 3.88933 20.5864 2.88916 19.849 2.15172C19.1116 1.41429 18.1114 1 17.0685 1C16.0256 1 15.0254 1.41429 14.288 2.15172L13.361 3.07872L4.839 11.5987C4.262 12.1767 3.973 12.4657 3.725 12.7837C3.4321 13.159 3.18096 13.5651 2.976 13.9947C2.803 14.3587 2.674 14.7467 2.416 15.5207L1.322 18.8017M18.922 8.63972C18.922 8.63972 16.953 8.52372 15.215 6.78572C13.477 5.04872 13.362 3.07872 13.362 3.07872M18.922 8.63972L10.401 17.1597C9.824 17.7367 9.535 18.0257 9.217 18.2737C8.84173 18.5666 8.43567 18.8178 8.006 19.0227C7.642 19.1957 7.255 19.3247 6.48 19.5827L3.199 20.6767M3.199 20.6767L2.397 20.9447C2.21005 21.0074 2.00932 21.0167 1.81738 20.9716C1.62544 20.9264 1.44989 20.8287 1.31047 20.6893C1.17104 20.5498 1.07327 20.3743 1.02814 20.1823C0.983009 19.9904 0.992309 19.7897 1.055 19.6027L1.323 18.8007L3.199 20.6767Z" stroke="black" stroke-width="1.5"/>
</svg>
