<svg width="42" height="42" viewBox="0 0 42 42" fill="none" xmlns="http://www.w3.org/2000/svg">
<path d="M27.666 1L28.9248 3.03273C29.7753 4.40545 30.2006 5.09273 29.9185 5.38727C29.6385 5.68182 28.7122 5.44364 26.8576 4.96909C24.9556 4.48287 22.9825 4.23609 20.999 4.23636C9.95322 4.23636 1.00001 11.7418 1.00001 21C0.996654 23.9514 1.92067 26.8483 3.67355 29.3818M14.334 41L13.0752 38.9673C12.2247 37.5927 11.7994 36.9055 12.0815 36.6127C12.3615 36.3182 13.2878 36.5545 15.1424 37.0309C16.995 37.5055 18.9633 37.7618 21.0011 37.7618C32.0468 37.7618 41 30.2564 41 20.9982C41.003 18.0474 40.079 15.1512 38.3265 12.6182" stroke="black" stroke-width="1.5" stroke-linecap="round" stroke-linejoin="round"/>
</svg>
