<svg width="150" height="150" viewBox="0 0 150 150" fill="none" xmlns="http://www.w3.org/2000/svg">
<path d="M75 0C34.1827 0 0 29.3077 0 66.3462C0 83.8269 7.84038 99.5077 20.1923 111.237C18.6874 115.16 16.5559 118.813 13.8808 122.054C10.332 126.359 6.41106 130.344 2.16346 133.962C1.23182 134.709 0.555136 135.727 0.226783 136.876C-0.101571 138.024 -0.0654016 139.246 0.330299 140.373C0.725999 141.5 1.46172 142.476 2.43594 143.167C3.41015 143.858 4.57482 144.23 5.76923 144.231C18.5481 144.231 27.7385 144.087 36.0577 141.888C43.5 139.915 49.8981 135.785 56.4288 129.987C62.3712 131.412 68.5038 132.692 75 132.692C115.817 132.692 150 103.385 150 66.3462C150 29.3077 115.817 0 75 0ZM75 11.5385C110.337 11.5385 138.462 36.4615 138.462 66.3462C138.462 96.2308 110.337 121.154 75 121.154C68.7173 121.154 62.1923 120.069 56.25 118.448C55.2997 118.209 54.3043 118.216 53.3575 118.469C52.4107 118.721 51.5438 119.21 50.8385 119.89C44.3481 126.115 39.5654 129.017 33.1731 130.708C30.2308 131.487 24.5538 131.302 20.55 131.613C21.3577 130.702 22.1135 130.217 22.8981 129.265C27.4327 123.727 31.5692 117.871 32.8154 111.237C32.987 110.241 32.8941 109.217 32.5458 108.268C32.1975 107.32 31.6061 106.479 30.8308 105.831C18.7442 95.85 11.5385 81.8596 11.5385 66.3462C11.5385 36.4615 39.6635 11.5385 75 11.5385ZM64.0038 34.0731C62.9883 34.301 62.0534 34.7994 61.2981 35.5154L52.6442 43.6327L60.3981 52.1019L67.2462 45.6115H81.1269L86.5385 51.75V60.225L71.7519 70.1365C70.9616 70.6748 70.3174 71.401 69.8773 72.2499C69.4372 73.0989 69.215 74.0439 69.2308 75V86.5385H80.7692V78.2423L95.5558 68.3308C96.347 67.792 96.9917 67.0648 97.4318 66.2148C97.8719 65.3648 98.0936 64.4186 98.0769 63.4615V49.5808C98.0693 48.1864 97.557 46.8419 96.6346 45.7962L87.9808 36.0577C87.4423 35.4381 86.7777 34.9405 86.0315 34.5983C85.2854 34.2561 84.4748 34.077 83.6538 34.0731H65.2615C64.8436 34.0272 64.4218 34.0272 64.0038 34.0731ZM69.2308 92.3077V103.846H80.7692V92.3077H69.2308Z" fill="black"/>
</svg>
