<svg width="150" height="150" viewBox="0 0 150 150" fill="none" xmlns="http://www.w3.org/2000/svg">
<g clip-path="url(#clip0_27_44)">
<path d="M74.4577 -0.178944C74.2137 -0.134886 73.9728 -0.0751466 73.7365 -9.79602e-05C72.434 0.291835 71.2731 1.02638 70.4515 2.07838C69.6299 3.13037 69.1985 4.43471 69.2308 5.76913V11.5384H17.3077C12.7174 11.5384 8.31513 13.3618 5.06931 16.6077C1.82348 19.8535 0 24.2558 0 28.8461L0 103.846C0 113.4 7.75385 121.154 17.3077 121.154H69.2308V123.317L37.8577 139.004C36.4714 139.673 35.4079 140.866 34.901 142.319C34.3941 143.773 34.4854 145.368 35.1548 146.755C35.8242 148.141 37.0169 149.205 38.4705 149.711C39.9241 150.218 41.5195 150.127 42.9058 149.458L69.2308 136.298V138.461C69.2308 139.992 69.8386 141.459 70.9205 142.541C72.0025 143.623 73.4699 144.231 75 144.231C76.5301 144.231 77.9975 143.623 79.0795 142.541C80.1614 141.459 80.7692 139.992 80.7692 138.461V136.298L107.094 149.458C108.48 150.127 110.076 150.218 111.529 149.711C112.983 149.205 114.176 148.141 114.845 146.755C115.515 145.368 115.606 143.773 115.099 142.319C114.592 140.866 113.529 139.673 112.142 139.004L80.7692 123.317V121.154H132.692C142.246 121.154 150 113.4 150 103.846V28.8461C150 24.2558 148.177 19.8535 144.931 16.6077C141.685 13.3618 137.283 11.5384 132.692 11.5384H80.7692V5.76913C80.7984 4.94874 80.6521 4.13157 80.3401 3.37223C80.0282 2.61288 79.5578 1.92885 78.9604 1.36584C78.363 0.802819 77.6523 0.37378 76.8758 0.107385C76.0993 -0.15901 75.2749 -0.256627 74.4577 -0.178944ZM11.5385 28.8461H138.462V103.846H11.5385V28.8461ZM120.433 34.6153C119.14 34.7542 117.933 35.3255 117.006 36.2364L98.0769 55.171L84.9173 41.9999C84.2871 41.3532 83.5139 40.8635 82.6599 40.5702C81.8059 40.2768 80.895 40.188 80.0004 40.311C79.1058 40.4339 78.2526 40.765 77.5094 41.2778C76.7661 41.7906 76.1536 42.4707 75.7212 43.2634L58.5923 73.1941L51.5596 55.523C51.2181 54.6106 50.6511 53.7995 49.9115 53.1654C49.1719 52.5313 48.2837 52.0948 47.3298 51.8967C46.376 51.6985 45.3875 51.7452 44.4565 52.0322C43.5255 52.3193 42.6824 52.8374 42.0058 53.5384L24.6981 70.846C24.1526 71.3912 23.7198 72.0384 23.4244 72.7507C23.1291 73.4631 22.9769 74.2267 22.9767 74.9979C22.9764 75.769 23.128 76.5327 23.4229 77.2453C23.7177 77.9578 24.1501 78.6054 24.6952 79.1509C25.2403 79.6963 25.8875 80.1291 26.5999 80.4245C27.3123 80.7199 28.0758 80.872 28.847 80.8723C29.6182 80.8726 30.3818 80.7209 31.0944 80.426C31.807 80.1312 32.4545 79.6989 33 79.1537L43.9962 68.1576L52.2923 88.7076C52.6839 89.7382 53.3625 90.6351 54.248 91.292C55.1334 91.9489 56.1885 92.3384 57.2884 92.4142C58.3883 92.4901 59.4869 92.2492 60.4542 91.7201C61.4214 91.191 62.2168 90.3959 62.7462 89.4287L82.0385 55.7134L93.9346 67.6153C94.4726 68.1719 95.1171 68.6145 95.8298 68.9168C96.5424 69.219 97.3086 69.3748 98.0827 69.3748C98.8568 69.3748 99.623 69.219 100.336 68.9168C101.048 68.6145 101.693 68.1719 102.231 67.6153L125.308 44.5384C126.219 43.6946 126.834 42.5794 127.061 41.3583C127.287 40.1373 127.114 38.8756 126.566 37.7609C126.019 36.6462 125.126 35.738 124.021 35.1713C122.916 34.6046 121.657 34.4096 120.433 34.6153Z" fill="black"/>
</g>
<defs>
<clipPath id="clip0_27_44">
<rect width="150" height="150" fill="white"/>
</clipPath>
</defs>
</svg>
