<svg width="70" height="70" viewBox="0 0 70 70" fill="none" xmlns="http://www.w3.org/2000/svg">
<path d="M35 0C15.9519 0 0 13.6769 0 30.9615C0 39.1192 3.65885 46.4369 9.42308 51.9104C8.72079 53.7413 7.72607 55.4462 6.47769 56.9585C4.82158 58.9676 2.99183 60.8271 1.00962 62.5154C0.574851 62.8642 0.259064 63.3393 0.105832 63.8752C-0.0473997 64.4112 -0.0305207 64.9814 0.154139 65.5073C0.3388 66.0332 0.682137 66.4889 1.13677 66.8114C1.5914 67.1338 2.13492 67.3073 2.69231 67.3077C8.65577 67.3077 12.9446 67.2404 16.8269 66.2146C20.3 65.2938 23.2858 63.3662 26.3335 60.6604C29.1065 61.3254 31.9685 61.9231 35 61.9231C54.0481 61.9231 70 48.2462 70 30.9615C70 13.6769 54.0481 0 35 0ZM35 5.38462C51.4904 5.38462 64.6154 17.0154 64.6154 30.9615C64.6154 44.9077 51.4904 56.5385 35 56.5385C32.0681 56.5385 29.0231 56.0323 26.25 55.2758C25.8065 55.1643 25.342 55.1676 24.9002 55.2853C24.4583 55.4031 24.0538 55.6314 23.7246 55.9488C20.6958 58.8538 18.4638 60.2081 15.4808 60.9969C14.1077 61.3604 11.4585 61.2742 9.59 61.4196C9.96692 60.9942 10.3196 60.7681 10.6858 60.3238C12.8019 57.7392 14.7323 55.0065 15.3138 51.9104C15.394 51.4456 15.3506 50.968 15.188 50.5252C15.0255 50.0825 14.7495 49.6902 14.3877 49.3877C8.74731 44.73 5.38462 38.2012 5.38462 30.9615C5.38462 17.0154 18.5096 5.38462 35 5.38462ZM29.8685 15.9008C29.3946 16.0071 28.9583 16.2397 28.6058 16.5738L24.5673 20.3619L28.1858 24.3142L31.3815 21.2854H37.8592L40.3846 24.15V28.105L33.4842 32.7304C33.1154 32.9816 32.8148 33.3205 32.6094 33.7166C32.404 34.1128 32.3004 34.5538 32.3077 35V40.3846H37.6923V36.5131L44.5927 31.8877C44.9619 31.6363 45.2628 31.2969 45.4682 30.9002C45.6736 30.5036 45.777 30.062 45.7692 29.6154V23.1377C45.7657 22.487 45.5266 21.8596 45.0962 21.3715L41.0577 16.8269C40.8064 16.5378 40.4963 16.3056 40.1481 16.1459C39.7998 15.9862 39.4216 15.9026 39.0385 15.9008H30.4554C30.2603 15.8794 30.0635 15.8794 29.8685 15.9008ZM32.3077 43.0769V48.4615H37.6923V43.0769H32.3077Z" fill="black"/>
</svg>
