<svg width="70" height="70" viewBox="0 0 70 70" fill="none" xmlns="http://www.w3.org/2000/svg">
<g clip-path="url(#clip0_36_246)">
<path d="M34.7469 -0.0834686C34.6331 -0.0629081 34.5207 -0.0350298 34.4104 -7.04825e-06C33.8026 0.136228 33.2608 0.479018 32.8773 0.969948C32.4939 1.46088 32.2926 2.06957 32.3077 2.6923V5.38461H8.07692C5.93479 5.38461 3.88039 6.23557 2.36568 7.75028C0.850959 9.265 0 11.3194 0 13.4615L0 48.4615C0 52.92 3.61846 56.5385 8.07692 56.5385H32.3077V57.5481L17.6669 64.8685C17.02 65.1808 16.5237 65.7374 16.2871 66.4158C16.0506 67.0941 16.0932 67.8386 16.4056 68.4856C16.718 69.1325 17.2746 69.6288 17.9529 69.8654C18.6312 70.1019 19.3758 70.0593 20.0227 69.7469L32.3077 63.6058V64.6154C32.3077 65.3294 32.5913 66.0142 33.0963 66.5191C33.6012 67.024 34.286 67.3077 35 67.3077C35.714 67.3077 36.3988 67.024 36.9037 66.5191C37.4087 66.0142 37.6923 65.3294 37.6923 64.6154V63.6058L49.9773 69.7469C50.6242 70.0593 51.3688 70.1019 52.0471 69.8654C52.7254 69.6288 53.282 69.1325 53.5944 68.4856C53.9068 67.8386 53.9494 67.0941 53.7129 66.4158C53.4763 65.7374 52.98 65.1808 52.3331 64.8685L37.6923 57.5481V56.5385H61.9231C66.3815 56.5385 70 52.92 70 48.4615V13.4615C70 11.3194 69.149 9.265 67.6343 7.75028C66.1196 6.23557 64.0652 5.38461 61.9231 5.38461H37.6923V2.6923C37.7059 2.30945 37.6376 1.9281 37.4921 1.57374C37.3465 1.21938 37.127 0.90017 36.8482 0.637429C36.5694 0.374687 36.2377 0.174469 35.8754 0.0501517C35.513 -0.074166 35.1283 -0.119721 34.7469 -0.0834686ZM5.38462 13.4615H64.6154V48.4615H5.38462V13.4615ZM56.2019 16.1538C55.5988 16.2187 55.0353 16.4853 54.6027 16.9104L45.7692 25.7465L39.6281 19.6C39.334 19.2982 38.9731 19.0697 38.5746 18.9328C38.1761 18.7959 37.751 18.7545 37.3335 18.8118C36.916 18.8692 36.5179 19.0237 36.171 19.263C35.8242 19.5023 35.5384 19.8197 35.3365 20.1896L27.3431 34.1573L24.0612 25.9108C23.9018 25.485 23.6372 25.1065 23.292 24.8106C22.9469 24.5146 22.5324 24.311 22.0873 24.2185C21.6421 24.126 21.1808 24.1478 20.7464 24.2818C20.3119 24.4157 19.9185 24.6575 19.6027 24.9846L11.5258 33.0615C11.2712 33.3159 11.0692 33.618 10.9314 33.9504C10.7936 34.2828 10.7226 34.6392 10.7224 34.999C10.7223 35.3589 10.7931 35.7153 10.9307 36.0478C11.0683 36.3804 11.27 36.6825 11.5244 36.9371C11.7788 37.1917 12.0808 37.3936 12.4133 37.5315C12.7457 37.6693 13.1021 37.7403 13.4619 37.7404C13.8218 37.7406 14.1782 37.6698 14.5107 37.5322C14.8433 37.3946 15.1454 37.1928 15.4 36.9385L20.5315 31.8069L24.4031 41.3969C24.5858 41.8779 24.9025 42.2964 25.3157 42.603C25.7289 42.9095 26.2213 43.0913 26.7346 43.1267C27.2479 43.1621 27.7606 43.0497 28.2119 42.8028C28.6633 42.5559 29.0345 42.1848 29.2815 41.7335L38.2846 25.9996L43.8362 31.5538C44.0872 31.8136 44.388 32.0201 44.7206 32.1612C45.0531 32.3023 45.4107 32.375 45.7719 32.375C46.1332 32.375 46.4907 32.3023 46.8233 32.1612C47.1558 32.0201 47.4566 31.8136 47.7077 31.5538L58.4769 20.7846C58.9022 20.3909 59.1891 19.8704 59.2949 19.3006C59.4008 18.7308 59.3199 18.142 59.0644 17.6218C58.8088 17.1016 58.3922 16.6778 57.8765 16.4133C57.3608 16.1488 56.7735 16.0578 56.2019 16.1538Z" fill="black"/>
</g>
<defs>
<clipPath id="clip0_36_246">
<rect width="70" height="70" fill="white"/>
</clipPath>
</defs>
</svg>
